<svg xmlns="http://www.w3.org/2000/svg" width="64" height="64"><circle fill="#0673D7" cx="32" cy="32" r="32"/><path fill="#0052A1" d="M32 2.834C14.327 2.834 0 14.326 0 32c0 17.673 14.327 32 32 32 17.673 0 32-14.327 32-32C64 14.326 49.673 2.834 32 2.834zm0 58.282c-15.764 0-28.542-11.649-28.542-27.414C3.458 17.938 16.236 6.287 32 6.287s28.542 11.651 28.542 27.415c0 15.765-12.778 27.414-28.542 27.414z"/><g fill="#0052A1"><path d="M38.088 38.189l6.3-27.739-18.349 21.577z"/><path d="M38.088 38.189l6.3-27.739L32.05 35.102z"/><path d="M26.039 32.027l-6.325 27.726 18.374-21.564z"/><path d="M26.039 32.027l-6.325 27.726 12.337-24.65z"/></g><path fill="#AAB1B7" d="M32 0C14.327 0 0 14.326 0 32c0 17.673 14.327 32 32 32 17.673 0 32-14.327 32-32C64 14.326 49.673 0 32 0zm0 60.667C16.167 60.667 3.333 47.832 3.333 32S16.167 3.333 32 3.333c15.832 0 28.667 12.835 28.667 28.667S47.832 60.667 32 60.667z"/><path fill="#FF190C" d="M37.986 34.986l6.3-27.739-18.349 21.577z"/><path fill="#AE0901" d="M37.986 34.986l6.3-27.739-12.337 24.651z"/><path fill="#AAB1B7" d="M25.937 28.824L19.613 56.55l18.373-21.564z"/><path fill="#F2F8FA" d="M25.937 28.824L19.613 56.55 31.95 31.899z"/><radialGradient id="a" cx="31.949" cy="32.356" r="3.305" gradientUnits="userSpaceOnUse"><stop offset="0" stop-color="#eeebe9"/><stop offset="0" stop-color="#f9f8f8"/><stop offset="0" stop-color="#fff"/><stop offset=".145" stop-color="#f0f0f0"/><stop offset=".423" stop-color="#c9c9c9"/><stop offset=".522" stop-color="#bababa"/><stop offset=".599" stop-color="#b0b1b1"/><stop offset=".728" stop-color="#969899"/><stop offset=".892" stop-color="#6c7171"/><stop offset="1" stop-color="#4c5354"/></radialGradient><circle fill="url(#a)" cx="31.949" cy="32.357" r="3.305"/></svg>